<svg height="700" width="700" xmlns="http://www.w3.org/2000/svg" xmlns:xlink="http://www.w3.org/1999/xlink"><clipPath id="a"><path d="m1933.937-153.60795c0 113.056782-68.3725 209.657163-145.664 207.535843-69.4871-1.90712-132.229-102.964341-132.229-216.021123 0-113.05679 59.1802-206.12163 128.6935-206.12163s149.1995 101.55012 149.1995 214.60691z"/></clipPath><clipPath id="b"><path d="m1933.937-153.60795c0 113.056782-68.3725 209.657163-145.664 207.535843-69.4871-1.90712-132.229-102.964341-132.229-216.021123 0-113.05679 59.1802-206.12163 128.6935-206.12163s149.1995 101.55012 149.1995 214.60691z"/></clipPath><clipPath id="c"><path d="m1734.5325 159.9935c308.0437-141.766137 264.2709-347.15832 135.7645-535.27983-250.8104 80.44638-273.0575 260.53131-135.7645 535.27983z"/></clipPath><clipPath id="d"><path d="m1470.0751 208.0767c-97.0319-48.78333-159.3653-152.922859-172.5341-300.873954l60.1041-9.545936 167.5843 217.08179z"/></clipPath><clipPath id="e"><path d="m1470.0751 208.0767c-97.0319-48.78333-159.3653-152.922859-172.5341-300.873954l60.1041-9.545936 167.5843 217.08179z"/></clipPath><linearGradient id="f" gradientUnits="userSpaceOnUse" x1="1335.3778" x2="1518.731" y1="-70.084755" y2="165.38181"><stop offset="0" stop-color="#21093d"/><stop offset=".29235435" stop-color="#4b276f"/><stop offset="1" stop-color="#682f8e"/></linearGradient><linearGradient id="g" gradientUnits="userSpaceOnUse" x1="1833.7842" x2="1840.8593" y1="-290.86337" y2="63.136627"><stop offset="0" stop-color="#17062b"/><stop offset=".34825295" stop-color="#4b276f"/><stop offset="1" stop-color="#682f8e"/></linearGradient><g transform="translate(0 -352.36208)"><path d="m388.42259 680.3648c36.13795-124.28676 143.29889-127.21663 205.52855-79.06367 77.10317 59.662 86.84904 197.37584 84.71345 212.54042-3.6672 26.0403-85.04555 109.13515-158.12854 160.96969 61.12776-192.16505-17.21909-351.01114-118.29514-280.75726-4.82135-4.30476-8.99698-9.3844-13.81832-13.68918z" fill="#042955"/><g fill="#353a72"><path d="m402.47614 687.77517c32.42629-39.46597 93.06115-23.95082 115.23527-.41768 57.1588 60.66206 51.13151 166.86171 21.14818 263.13957-1.94812 1.21756-2.29818 1.52198-4.24627 2.73954 23.68243-95.68419 21.55285-208.87394-29.908-259.19184-23.77672-23.24861-64.14956-36.98289-100.49413-3.43875-.73055-1.0958-1.0045-1.73504-1.73505-2.83084z"/><path d="m392.52248 677.45622c23.67285-73.88119 96.02721-116.47867 164.58639-89.215 117.28031 46.6384 84.41428 192.13407 65.90026 287.19246-24.71674 25.56903-51.99038 49.31169-77.43765 70.1322 34.33555-130.28035 28.62693-208.79986-28.49123-265.91803-21.98244-21.98244-76.92021-35.64447-116.24783 6.48358-2.92218-3.04393-5.38776-5.63128-8.30994-8.67521z"/><path d="m628.48821 870.31984c13.60668-18.50061 31.34948-31.21068 40.54519-55.8866 4.89998-57.28657-14.01709-117.45631-33.60501-155.24063 21.34158 67.24461 9.87323 149.94573-6.94018 211.12723z"/></g><path d="m396.54047 681.83949c23.62093-62.218 110.94719-94.55065 156.33643-75.61131 92.72774 38.69199 65.22453 193.87241 42.94294 295.78329-10.4521 9.73171-21.75917 19.72714-32.64672 28.91681 27.39543-114.57368 59.19086-257.68208-12.85313-297.3047-39.85237-21.91795-110.92093-7.79248-148.66571 51.13808-1.7046-.97405-3.4092-1.94812-5.11381-2.92217z" fill="#ee4d90"/><path d="m399.59347 683.7871c27.22769-45.39383 101.35918-76.86584 147.28778-52.75499 85.97998 45.13642 40.03211 207.6508 17.76124 298.65368-4.20793 3.6483-8.34764 7.317-12.74928 10.67472 23.84843-93.24137 44.6237-236.11644-14.56856-275.2346-37.53704-24.80696-107.25339-21.88977-137.21461 21.76062-.62419-1.70037.10762-1.39903-.51657-3.09943z" fill="#6d298c"/><g transform="matrix(.25828634 0 0 .25828634 547.39782 602.52706)"><path d="m-1428.1521 399.44292c-60.7771 161.34038-15.5444 243.2687 9.0383 327.5961 45.0336 154.48107 130.7848 277.70488 171.5946 434.41458 32.0558 123.0944-36.4256 268.2999 32.5192 375.1943 10.291 15.9555 248.06758 11.3956 270-16.4286 32.06595-40.6798 5.35212-200.7718-10.71428-263.5714-46.83962-183.0844-75.84072-286.12857-269.28572-567.14286-63.2199-91.83847-122.1997-213.39545-203.1521-290.06212z" fill="#8f66a2"/><path d="m-1422.7945 632.13768c40.1033 143.94926 147.581 328.40077 175.8565 433.92642 42.728 159.4631 41.7903 323.3309 40.6753 447.8641-.095 10.6752 245.32656 13.9077 249.11984-18.7089 17.29312-148.6949-49.54964-355.6187-120.00004-511.42855-57.2532-126.62264-144.9999-266.42857-205.7142-391.42857-46.6667 1.66667-93.2708 38.10884-139.9374 39.7755z" fill="#c9abd1"/><path d="m-927.32004 820.0271c58.07882 65.61905 131.52633 149.73971 163.52216 194.7143 94.35126 132.6237 105.21826 316.3159 50.09663 443.8178-9.75536 22.5651-3.51899 51.4918 15.51252 56.5247 67.57758 17.8709 182.64879 27.8902 216.89745-27.95 69.46998-113.2663 37.57696-227.4991 12.5805-358.0001-28.26283-147.55402-118.52457-276.10838-177.78685-414.16257-93.60747 35.01862-187.21494 70.03725-280.82241 105.05587z" fill="#8f66a2"/><path d="m-931.2132 792.36218c5.71429 7.14286 178.4813 186.66877 215.91734 256.23422 46.79069 86.9487 63.09808 158.0697 56.87631 270.3169-2.58891 46.7066-14.83551 103.0218-27.44731 143.5192-5.98515 19.2188 1.66496 28.4689 23.47139 32.2654 54.43773 9.4775 139.7009 15.0042 163.56407-34.8339 49.15378-102.6574 26.26198-195.2646.25997-306.0732-36.94803-157.45545-120.95238-300.00003-181.42857-450.00005-76.66667 29.52381-174.54653 59.04762-251.2132 88.57143z" fill="#b38dc4"/><path d="m-1254.4869 107.57369c-80.3522 59.17103-187.1114 282.44192-190.2554 364.49175-3.1439 82.04983 35.0667 216.23859 128.932 293.8826s245.8307 97.05417 380.63312 93.64832c134.80242-3.40586 398.53888-94.93097 426.0603-199.88765 27.52142-104.95667 22.05415-284.58383-62.16028-358.77747-84.21443-74.19365-209.31482-57.35717-280.69985-33.03917-71.38504 24.318-147.02956 41.18593-195.96959-2.0203-48.94-43.20623 25.6891-156.82353-26.264-193.94929-51.9531-37.125762-99.9241-23.51983-180.2763 35.65121z" fill="#8f66a2"/><path d="m-1267.3441 136.32714c-8.8817 2.80161-119.7017 210.30538-147.2018 300.61033-19.1833 62.99404-36.3433 161.89734 7.9695 227.04839 68.3254 100.45588 217.4279 146.9195 338.0084 161.75553 113.66883 13.98563 240.25894 4.78183 345.21431-41.05025 73.88451-32.26401 163.40295-88.96865 186.40452-166.2397 25.76889-86.56752 5.89461-233.09287-72.67789-298.44985-73.71162-61.31368-154.86582-55.29633-241.93153-26.26398-53.49995 17.83974-117.71769 63.5157-168.69551 39.39596-43.2931-20.48377-51.3974-81.88512-66.67-127.27922-12.3034-36.56895 13.7138-94.00242-19.1929-114.147238-44.8679-27.467245-161.2271 44.620028-161.2271 44.620028z" fill="#c9abd1"/><path d="m-1207.1429 705.21933c-91.3708 285.23808-226.0662 577.83127-373.1054 815.77767-15.6827 25.3786 10.839 59.8915 40.3828 64.0367 83.2182 11.6761 291.5414 33.7513 337.6001-52.4561 114.2483-213.8371 109.6113-516.9398 132.092-785.51128-46.6666-14.28572-90.3028-27.56128-136.9695-41.84699z" fill="#8f66a2"/><path d="m-903.07637 702.34432c62.91655 112.59857 190.97087 234.19721 244.45691 303.55088 85.64626 111.0547 104.59445 270.8007 98.48987 399.5153-2.7799 58.6139-63.35792 182.6141-6.04636 191.7826 79.28778 12.6842 348.80229 16.5319 358.5896-93.7978 12.01897-135.4866-151.82835-529.93892-304.02002-673.09336-16.68529-15.69451-67.61693 38.75749-58.88472 17.5805 41.29544-100.14789 73.17569-197.04568 75.74568-298.69352-135.69716 50.17091-269.77702 102.46904-408.33096 153.1554z" fill="#8f66a2"/><g fill="#c9abd1"><path d="m-1216.738 762.00197c-27.2142 113.65205-62.4046 218.26419-110.725 326.01143-64.9224 144.7672-146.7267 292.7994-224.0103 431.2669-8.7222 15.6274-.907 34.3981 16.5489 38.3461 71.6582 16.207 281.2238 14.7806 300.518-21.4011 125.5998-235.5326 104.7449-564.02918 170.9848-795.7327-46.8037-15.82572-109.0288-30.90885-155.8325-46.73457-3.0305 19.86633 9.9725 37.10474 2.5161 68.24394z"/><path d="m-526.84191 558.11994c-7.57614 151.35452-55.26064 258.07073-77.73438 338.67875-7.80681 28.00116 69.5689-59.11423 85.35788-41.41626 151.99275 170.36967 281.30776 499.69847 287.34617 652.81027 2.53733 64.3374-316.05359 94.8208-327.19365 59.3296-8.8353-28.1485 61.88981-218.8935 9.00193-385.9621-31.08103-98.1825-80.56494-204.91696-170.4917-283.70059-65.63608-57.50289-123.84522-159.74648-201.71362-203.5965 130.30968-43.09984 265.11769-93.04333 395.42737-136.14317z"/></g></g><path d="m133.25903 629.02693c-20.99679 1.78143-60.151375-50.16577-47.121164-108.50624l40.581254-19.80395 21.50045 124.13468z" fill="#8f66a2"/><path d="m89.985919 555.44102c-7.744122-.30495-15.126901 1.95472-23.742688-4.09497 3.385514 6.46731 8.382425 11.03386 23.963135 11.35476z"/><path d="m90.598393 563.76397c-10.361337 6.78616-17.102533 6.63062-29.834242 5.57172 7.132552 4.74552 18.344142 8.99614 32.425732 1.53676z"/><g transform="matrix(.25828634 0 0 .25828634 -251.08686 574.7664)"><path d="m1487.5888 200.95049c-97.7419-47.3447-161.6068-150.552108-176.9596-298.292533l59.9565-10.432717 170.7727 214.58264z" fill="url(#f)"/><path clip-path="url(#e)" d="m1378.1511 137.36601 40.3051-53.740114 21.2132 14.849242-38.1378 69.639612z" fill="#cfb4d7" transform="matrix(.9998909 -.01477148 .01477148 .9998909 14.600629 14.611188)"/><path clip-path="url(#d)" d="m1347.0384 112.97083 59.7505-51.618798 16.617 21.213204-45.9619 60.457634z" fill="#905da8" transform="matrix(.9998909 -.01477148 .01477148 .9998909 14.600629 14.611188)"/><path d="m1512.5981 145.20394c-79.5189 18.7386-180.7226-111.365489-190.7993-204.523545-9.9437-52.723925 21.5453-50.204285 32.4819-75.087755l166.9956 174.328934z" fill="#0e0e0e"/><g fill="#fff"><path d="m1336.7884-82.695658c-25.1256 5.811526-11.5702 55.34318 6.4446 73.7966669 29.0637 29.7711841 71.7521 53.7426051 93.3137 43.4732821 42.4327-20.209825-57.6997-126.998075-99.7583-117.269949z"/><path d="m1403.3833 47.540675c-6.6505 5.816023-1.5626 19.794812 4.6287 26.097425 6.7949 6.917074 22.3262 13.027221 28.5467 5.589343 5.5262-6.607721-3.0958-18.183035-9.3724-24.082584-6.0692-5.704611-17.533-13.087399-23.803-7.604184z"/></g></g><path d="m233.81571 451.83362c-1.87552-30.35423 4.37109-65.31305 12.3729-65.92121 21.66586-1.64665 53.60776 42.90651 58.91634 73.84068 6.96979 40.61441-5.07697 50.47638-9.22188 74.43133-2.47559 14.30735-.9175 30.02659-5.47653 43.81226-7.00672 21.18694-11.34727 45.68215-28.59966 59.83616-18.64732 15.29841-45.4474 16.15253-69.36939 22.51464-26.73013 7.10892-62.63133 11.32681-80.52531-16.63245-7.0827-11.06669 21.89036-16.07698 22.92033-40.16123.27001-6.31363-10.16357-25.37087-7.97412-31.12092 18.65354-48.9886 110.27762-66.86225 106.95732-120.59926z" fill="#8f66a2"/><path d="m287.62639 572.46889c-13.32584 27.08073-26.67751 58.92712-54.33071 71.0203-34.72066 15.1839-93.67847 26.2946-113.81336 2.06016-3.3235-4.00021-4.719-6.07218-.95307-8.88755 7.03382-5.2584 17.17394-16.05849 18.28274-24.6936 1.6394-12.76704-2.95794-19.96682-7.29005-25.29566-4.61072-5.19225-6.25185-9.95492-11.35597-14.66304-11.11634-12.19907-20.652683-18.39456-30.57372-24.2457-3.944936-13.87414-9.096406-33.96414 2.616647-42.38187 42.181203-30.31406 94.068503-44.65923 143.293073-61.24651 0 3.6273 4.5772 15.24362 4.77611 11.04497 1.05401-22.25023 1.28076-63.54211 11.46011-61.96594 21.43694 3.31929 46.47738 39.82878 51.72283 73.52751 4.19464 26.94792-5.42189 40.93531-8.2148 58.2135-2.50975 15.52642 1.32435 33.40149-5.61983 47.51343z" fill="#c9abd1"/><path d="m141.86185 658.91255c5.72923-4.41959 12.56106-9.32858 16.78079-16.63739 2.90665-5.03446 1.59135-14.14063.35855-18.71703 6.80687 8.12091 5.38033 12.47446 4.41328 17.35302-1.49042 7.51879-10.66267 14.76321-17.13731 19.1159-1.84337.42321-4.01398.73374-4.41531-1.1145z" fill="#8f66a2"/><path d="m133.54315 638.11582c4.73002-3.67278 6.23578-5.99878 4.66132-11.83261 7.50745 6.686 3.19554 12.11006-4.66132 11.83261z" fill="#8f66a2"/><path d="m267.28756 415.59096c8.39353 16.52947 17.72273 50.24777 10.97205 72.28652-1.06049 3.46214-1.99849 9.54383.57371 6.09558 12.71096-17.03998 5.72897-57.19405-5.30675-72.78853-2.03922-2.88159-8.5219-10.08931-6.23901-5.59357z" fill="#8f66a2"/><g transform="matrix(.25828634 0 0 .25828634 547.39782 602.52706)"><path d="m-1215.0099-95.012927c32.4896-14.284383 90.8724 7.443193 99.4287 29.594598-35.1722-16.610523-79.8293-21.5205-110.919-13.255594z"/><path d="m-1194.5957-133.97467c33.3298-18.6813 86.641-7.62409 101.8117 14.579-37.0505-13.09287-79.6597-12.45273-109.6589 4.66333z"/><path d="m-1184.25-165.88781c21.3305-28.36596 81.8104-36.84536 102-24.5-38.8003 2.74376-82.3501 17.3184-102.6997 42.53033z"/><path d="m-1379.0156-444.62218c-208.0815 131.56404-91.0664 392.024606-21.2578 488.109367"/><path d="m-1400.2821 43.50211c308.0437-141.766138 264.2709-347.15832 135.7645-535.27983-246.8104 92.44638-273.0575 260.53131-135.7645 535.27983z" fill="#fff"/><path clip-path="url(#c)" d="m1987.6772-137.34498c0 113.056784-68.3725 209.657161-145.664 207.535841-69.4871-1.907125-132.229-102.964339-132.229-216.021121 0-113.05679 59.1802-206.12163 128.6935-206.12163s149.1995 101.55012 149.1995 214.60691z" fill="url(#g)" transform="translate(-3134.815 -116.49132)"/><path clip-path="url(#a)" d="m1663.8222-41.532004 117.3798-43.133513 12.0208 21.213203-94.7523 76.367532z" fill="#905da8" transform="translate(-3081.0749 -100.22786)"/><path clip-path="url(#b)" d="m1696.3492 10.793898 98.9949-80.610173 14.8493 21.213204-78.4889 95.459415z" fill="#cfb4d7" transform="translate(-3081.0749 -100.22786)"/><path d="m-1211.4386-285.71676c11.4894 70.44842 9.0962 170.41909-44.2401 181.43355-54.7398 11.304296-100.7126-76.60938-112.7837-170.05918-9.1803-71.07073.8597-124.73936 53.19-124.73936 52.3302 0 93.1965 48.14094 103.8338 113.36499z" fill="#0e0e0e"/><g fill="#fff"><path d="m-1273.3723-214.34193c11.0363 14.65264 14.7219 33.0923 4.3449 40.56819-10.0349 7.22943-28.1559-6.34592-36.4186-17.92287-9.1848-12.86906-16.4777-38.3747-5.7843-43.16435 12.6716-5.67569 28.0999 7.56341 37.858 20.51903z"/><path d="m-1240.5595-358.97606c21.3443 28.33835 35.9242 77.30275 10.4517 94.14558-26.4396 17.4823-72.9433-20.28092-90.789-41.21428-24.8345-29.13154-43.9624-71.81985-14.411-89.59958 23.9454-14.40687 75.876 11.61198 94.7483 36.66828z"/></g></g><path d="m293.78561 557.59498c-20.93363 43.43715-52.07016 64.70569-64.81994 46.92998-15.05954 37.16604-15.38439 48.16834-15.77683 72.86023 18.59752-.57371 34.92747-9.14998 51.37362-19.47663-5.45018 18.21505-32.27076 35.99985-51.20295 46.4699 8.38873 38.70847 43.69141 70.72737 71.56939 83.3303 32.18838-38.98669 39.48052-77.14184 36.68973-118.3554-26.22723-12.43052-32.33933-66.73334-27.83302-111.75838z" fill="#042955"/><path d="m134.73927 604.781c-.34437-4.86438-2.30939-10.71658-5.31331-14.55813-10.45907-13.37554-23.66427-26.92687-37.132072-36.64189-2.455941-1.77159-10.853373-8.88759-18.571847-15.52467 8.919945 2.67771 14.918671 7.4645 21.583388 11.88766 4.477136 3.18299 25.934631 21.9655 35.993101 37.43775 4.13948 6.36748 5.27612 10.80079 3.44074 17.39928z"/><path d="m235.86772 452.70404c-8.55049 4.24533-10.35304 15.24564-6.3682 23.09617 8.6343 17.01043 19.72946 24.1231 34.55584 33.93227-99.60242-15.05543-198.532335 10.99706-247.188961 93.24405-19.1312279-81.00056 8.735089-170.34973 96.668851-187.60073 31.86267-6.25086 82.31682 5.82488 120.37241 12.23121-.17682 7.10899-.83713 18.67921 1.96006 25.09703z" fill="#042955"/><path d="m20.140617 585.94828c-9.461529-64.26871 8.019326-112.12081 52.403561-148.11053-17.661362 42.60904-39.249476 80.42024-39.707676 132.13986z" fill="#353a72"/><path d="m37.863451 566.71881c-.640886-42.17627 28.819461-118.34801 52.011379-138.48729 7.642021-2.9571 20.10113-6.35372 28.32675-7.10135-36.892481 32.7349-44.997532 48.88084-54.832353 121.30973z" fill="#353a72"/><path d="m69.20092 538.52319c6.018123-45.02948 12.472466-85.97451 58.19736-117.78045 37.45036-.78233 71.15957 5.14454 106.38445 11.48488-.1607 4.45861.0536 9.64188.59223 14.95305-23.51881 9.96233-9.85166 45.05438 12.14524 55.23784-54.32622-.28487-116.53588-7.27154-177.31928 36.10468z" fill="#353a72"/><g transform="matrix(.25828634 0 0 .25828634 547.39782 602.52706)"><path d="m-1693.5207-370.33666c-129.872-85.08851-357.2539-276.20224-341.5326-308.29855 15.7212-32.09631 266.3435 42.66211 399.5153 115.96551-21.9041 33.16426-51.1472 121.85808-57.9827 192.33304z" fill="#8f66a2"/><path d="m-1646.6307-542.53926c-120.0904-73.42125-353.509-145.88473-370.0378-126.55001-16.5287 19.33472 202.7171 203.3215 327.0564 269.42331 10.7067-48.63967 19.9864-93.68443 42.9814-142.8733z" fill="#c9abd1"/><g fill="#8f66a2"><path d="m-1925.275-558.95739c-7.231-43.34489-24.4562-76.91315-52.1491-113.66741l16.617 3.18198c33.807 35.5799 40.4335 75.89968 45.4316 114.90484z"/><path d="m-1895.75-651.38781c65.2673 68.80974 57.1292 113.58479 57 160.25l12.25 4.75c1.426-45.38603 6.9437-118.86648-55.25-165z"/><path d="m-1799.75-619.63781c50.2402 49.19075 95.5446 116.74979 73 205l12.5 6.25c.4167-24.91667 33.1449-112.24538-63.25-205.25z"/></g></g><path d="m109.26206 516.66083c4.7245-34.85977 8.45082-65.49752 47.49158-95.2232 5.42742.35534 10.73957.85385 16.31603 1.43301-16.03186 23.86465-36.44661 53.38617-34.96723 84.99141-9.46588 2.02021-19.21885 5.84091-28.84038 8.79878z" fill="#6d298c"/><path d="m189.74452 424.96647c-6.69-.92547-13.3422-2.03144-20.08365-2.45871-35.13641 38.20665-33.43804 60.43214-35.27842 86.22272 14.09869-3.40765 19.59205-3.56128 27.86964-4.8586-1.13259-37.49697 5.23626-58.14534 27.49243-78.90541z" fill="#ee4d90"/><path d="m288.46577 580.1497c-14.24387 20.27189-32.79782 44.23559-57.46871 34.9978l-2.84115 8.13602c22.00819 11.1386 41.26935.47814 60.50358-35.51437z" fill="#353a72"/><path d="m226.67077 627.93268-4.45544 17.56347c25.31691 1.84778 49.87878-19.62563 65.76616-39.22724l1.06543-8.32973c-14.96486 27.73321-47.02008 40.97989-62.37615 29.9935z" fill="#353a72"/><path d="m288.33663 612.95207c-12.85502 13.94418-31.89656 36.73351-67.02531 38.35552-.77485 6.24193-1.54971 12.48386-2.32457 18.72576 23.36727-2.89002 41.87663-15.21976 58.76014-30.73607-8.13543 37.70024-31.49469 53.11304-55.40242 68.70416 6.72252 26.68118 29.08742 56.51138 63.15101 70.51217 10.69846-12.86436 34.1216-46.41679 32.15665-105.8974-14.18777-13.99917-29.14216-30.73367-29.3155-59.66414z" fill="#353a72"/><path d="m232.23369 731.8754c4.54875 8.55258 11.94184 17.38437 18.62406 23.81603 27.39542-27.30407 46.66013-63.39854 51.13471-100.74759-2.40882-3.36162-4.95867-7.9119-7.00976-11.79921-15.4023 32.29612-26.70885 69.40181-62.74901 88.73077z" fill="#6d298c"/><path d="m301.46118 654.19542c-7.53049 38.56559-24.73007 76.28214-51.84884 100.26589 4.65482 5.29903 10.53242 9.37529 16.32908 13.53248 21.28832-27.89472 40.19272-63.22451 44.50194-102.78225-3.17995-3.42273-5.97092-6.94041-8.98218-11.01612z" fill="#ee4d90"/><g transform="matrix(.25828634 0 0 .25828634 -321.21914 305.62692)"><path d="m2527.5237 1648.8622-5.4158 42.9395-32.1079-12.7658 24.7579 26.6921-18.1816 25.1447 24.3711-9.671 10.4447 45.2605 4.6421-46.4211 25.1447 9.6711-17.021-20.8895 19.3421-23.2105-24.3711 5.4158z" fill="#fff"/><path d="m2605.9192 1591.6267 41.7558 74.5725-71.9643 10.2401 67.4465 10.5412-12.0413 80.2044 33.1239-77.4937 53.1041 83.5231-28.7086-82.0172 68.9583-11.6496-65.0429-20.2754 9.3366-68.669-36.1416 59.0312z" fill="#fff"/><path d="m2541.268 1592.3984 97.0703 37.0568 19.8779-128.3024 30.7203 124.9895 78.2891-10.866-62.0253 58.4524 50.6945 71.7476-71.1748-29.5826-15.8661 140.7179-27.5038-143.4285-74.5054 38.9192 55.23-81.9878z" fill="#ec448c"/><g fill="#fff"><path d="m2570.9572 1502.2907-21.9572-9.0857 18.9285 21.2-12.8713 19.6857 17.4143-7.5713 5.3 36.3428 5.3-37.1 18.1713 6.8143-12.1143-16.6571 12.8715-18.9287-17.4143 5.3-8.3285-32.557z"/><path d="m2738.6218 1533.5623-20.8173-21.5608 24.5347 11.1522 7.4348-37.1739 8.1782 35.6869 23.0478-2.9739-14.8695 17.1 12.6391 19.3303-20.0739-8.1782-6.6913 37.9173-6.6913-36.4303-21.5607 7.4347z"/><path d="m2770.7473 1714.0522 9.5452 46.3625 23.1813-5.4544-16.3633 22.4995 14.3179 24.5449-20.4541-8.1817-6.818 47.7262-9.5452-48.408-23.1813 12.2725 17.7269-27.2721-23.8631-29.3175 28.6357 13.636z"/><path d="m2608.0747 1771.3218 7.8017 34.9142 19.1495-2.6857-12.7664 19.4714 9.9294 17.4571-15.6033-8.0571-4.2554 36.9284-7.8017-36.257-16.3126 8.7285 11.3479-20.1427-18.4403-23.5001 21.9866 9.4001z"/></g></g></g></svg>